<svg id="Capa_1" enable-background="new 0 0 512 512" height="512" viewBox="0 0 512 512" width="512" xmlns="http://www.w3.org/2000/svg"><g><path d="m66.409 167.572 77.213-77.213-28.966-28.966c-5.857-5.858-15.355-5.858-21.213 0l-56 56c-5.858 5.858-5.858 15.355 0 21.213z"/><path d="m199.05 223h146v146h-146z"/><path d="m463.95 0h-208c-6.162 0-11.698 3.769-13.957 9.502l-28.242 71.699-12.23-.046c-3.998-.015-7.836 1.566-10.663 4.393l-129.415 129.416c-2.813 2.813-4.393 6.628-4.393 10.607v271.429c0 8.284 6.716 15 15 15h391.9c8.284 0 15-6.716 15-15v-482c0-8.284-6.716-15-15-15zm-197.787 30h95.833l-20.156 51.019-95.844.18zm128.493 367.394c9.477 9.476 2.637 25.606-10.606 25.606-3.839 0-7.678-1.464-10.606-4.394l-19.607-19.606h-163.574l-19.606 19.606c-5.857 5.858-15.355 5.859-21.213 0-5.858-5.858-5.858-15.355 0-21.213l19.606-19.606v-163.574l-19.606-19.606c-5.858-5.858-5.858-15.355 0-21.213 5.857-5.858 15.355-5.858 21.213 0l19.606 19.606h163.574l19.606-19.606c5.857-5.858 15.355-5.858 21.213 0s5.858 15.355 0 21.213l-19.606 19.606v163.574z"/></g></svg>