<svg id="Capa_1" enable-background="new 0 0 510 510" height="512" viewBox="0 0 510 510" width="512" xmlns="http://www.w3.org/2000/svg"><g id="XMLID_1541_"><g><path id="XMLID_65_" d="m480 105v300h-150c-24.853 0-45 20.147-45 45h-30-30c0-24.853-20.148-45-45-45h-150v-300h-30v360h140.918c28.838 0 55.605 14.325 71.602 38.32l4.453 6.68h76.055l4.453-6.68c15.997-23.995 42.765-38.32 71.603-38.32h140.916v-360z"/><path id="XMLID_64_" d="m240 420v-45c0-16.542-13.458-30-30-30h-90v-285h-60v315h135c24.814 0 45 20.186 45 45z"/><path id="XMLID_63_" d="m255 360c0-8.711 0-279.625 0-285 0-41.421-33.578-75-75-75h-30v315h45c33.137 0 60 11.863 60 45z"/><path id="XMLID_58_" d="m450 375v-315h-105c-.23 0-.461.001-.69.003-32.888.248-59.31 27.234-59.31 60.122v134.875 105 26.495c7.968-7.142 18.483-11.495 30-11.495zm-120-195h90v30h-90zm0 60h90v30h-90zm0 60h90v30h-90z"/></g></g></svg>